<svg xmlns="http://www.w3.org/2000/svg" version="1.1" xmlns:xlink="http://www.w3.org/1999/xlink" xmlns:svgjs="http://svgjs.dev/svgjs" width="1500" height="1500" viewBox="0 0 1500 1500"><rect width="1500" height="1500" fill="#ffffff"></rect><g transform="matrix(0.6666666666666666,0,0,0.6666666666666666,249.39393939393938,676.36223917856)"><svg viewBox="0 0 396 58" data-background-color="#f2f0e4" preserveAspectRatio="xMidYMid meet" height="219" width="1500" xmlns="http://www.w3.org/2000/svg" xmlns:xlink="http://www.w3.org/1999/xlink"><g id="tight-bounds" transform="matrix(1,0,0,1,0.2400000000000091,0.2533570386542294)"><svg viewBox="0 0 395.52 57.49328592269154" height="57.49328592269154" width="395.52"><g><svg viewBox="0 0 421.3041329481563 61.241299999999995" height="57.49328592269154" width="395.52"><g><svg viewBox="0 0 421.3041329481563 61.241299999999995" height="61.241299999999995" width="421.3041329481563"><g id="textblocktransform"><svg viewBox="0 0 421.3041329481563 61.241299999999995" height="61.241299999999995" width="421.3041329481563" id="textblock"><g><svg viewBox="0 0 421.3041329481563 61.241299999999995" height="61.241299999999995" width="421.3041329481563"><g><svg><g></g><g></g></svg></g><g><svg><g><svg></svg></g><g></g></svg></g><g id="text-0"><svg viewBox="0 0 421.3041329481563 61.241299999999995" height="61.241299999999995" width="421.3041329481563"><g transform="matrix(1,0,0,1,0,11.695649999999997)"><svg width="140.7" viewBox="3.85 -37.3 140.69 37.849999999999994" height="37.85" data-palette-color="#3d3028"><path d="M33.25-27.05L33.25-27.05Q33.25-24.25 31.38-22.33 29.5-20.4 26.15-19.7L26.15-19.7Q29.7-19.1 32.5-16.9L32.5-16.9Q33.9-15.75 34.77-14.03 35.65-12.3 35.65-10.2L35.65-10.2Q35.65-5.5 31.15-2.48 26.65 0.55 19.35 0.55 12.05 0.55 8.63-1.58 5.2-3.7 5.2-8.45L5.2-8.45 5.2-29.2Q5.2-32.65 3.85-34.7L3.85-34.7Q11-37.3 18.45-37.3 25.9-37.3 29.58-34.4 33.25-31.5 33.25-27.05ZM18.75-21.35L18.75-21.35Q21.7-21.35 23.45-22.83 25.2-24.3 25.2-26.63 25.2-28.95 23.43-30.43 21.65-31.9 18.48-31.9 15.3-31.9 13.1-31.25L13.1-31.25 13.1-21.4 18.55-21.35Q18.65-21.35 18.75-21.35ZM13.1-16.2L13.1-7.8Q13.1-4.85 19.45-4.85L19.45-4.85Q23.25-4.85 25.4-6.4 27.55-7.95 27.55-10.5 27.55-13.05 25.4-14.63 23.25-16.2 19.45-16.2L19.45-16.2 13.1-16.2ZM43.95-13.15L43.95-13.15 43.95-31.7Q43.95-34.25 42.25-35.15L42.25-35.15Q44.15-37.3 46.77-37.3 49.4-37.3 50.6-35.85 51.8-34.4 51.8-31.4L51.8-31.4 51.8-12Q51.8-8.7 53.8-7 55.8-5.3 59.02-5.3 62.25-5.3 64.25-7 66.25-8.7 66.25-12L66.25-12 66.25-31.7Q66.25-34.25 64.55-35.15L64.55-35.15Q66.45-37.3 69.15-37.3L69.15-37.3Q74.1-37.3 74.1-31.4L74.1-31.4 74.1-13.15Q74.1-6.7 70.37-3.08 66.65 0.55 59 0.55 51.35 0.55 47.65-3.08 43.95-6.7 43.95-13.15ZM109.25-29.9L109.25-29.9Q109.25-28.05 108.07-26.93 106.89-25.8 104.84-25.8 102.8-25.8 101-27.1L101-27.1Q101.39-27.9 101.39-29.18 101.39-30.45 99.92-31.45 98.44-32.45 95.72-32.45 93-32.45 91.25-31.45 89.5-30.45 89.5-28.78 89.5-27.1 91.62-25.68 93.75-24.25 96.77-22.93 99.8-21.6 102.82-20.05 105.84-18.5 107.97-16 110.09-13.5 110.09-10.4L110.09-10.4Q110.09-5.6 105.82-2.53 101.55 0.55 95.47 0.55 89.39 0.55 85.19-1.73 81-4 81-7.6L81-7.6Q81-9.7 82.47-10.95 83.94-12.2 86.02-12.2 88.09-12.2 90.09-10.6L90.09-10.6Q88.89-9.5 88.89-7.95 88.89-6.4 90.72-5.35 92.55-4.3 95.62-4.3 98.69-4.3 100.47-5.55 102.25-6.8 102.25-8.88 102.25-10.95 100.12-12.58 98-14.2 94.97-15.5 91.94-16.8 88.92-18.25 85.89-19.7 83.77-21.93 81.64-24.15 81.64-27L81.64-27Q81.64-31.7 85.75-34.5 89.84-37.3 95.8-37.3 101.75-37.3 105.5-35.2 109.25-33.1 109.25-29.9ZM133.44-0.5L133.44-0.5Q131.59 0.35 129.42 0.35 127.24 0.35 126.02-1.15 124.79-2.65 124.79-5.6L124.79-5.6 124.84-15.95 115.59-31.15Q114.34-33.15 112.49-33.3L112.49-33.3Q113.79-37.3 117.54-37.3L117.54-37.3Q119.44-37.3 120.82-36.08 122.19-34.85 123.64-32.45L123.64-32.45 129.39-23 134.99-30.25Q136.29-31.95 136.29-33.4 136.29-34.85 135.09-36.1L135.09-36.1Q137.49-37.3 139.62-37.3 141.74-37.3 143.14-36.2 144.54-35.1 144.54-33.1 144.54-31.1 142.69-28.8L142.69-28.8 132.64-16 132.59-4.75Q132.59-2.05 133.44-0.5Z" opacity="1" transform="matrix(1,0,0,1,0,0)" fill="#3d3028" class="undefined-tk-0"></path></svg></g><g><svg xmlns="http://www.w3.org/2000/svg" xmlns:xlink="http://www.w3.org/1999/xlink" version="1.1" x="155.15869999999998" y="0" viewBox="0 0 244.70685876809569 455.69032878696873" enable-background="new 0 0 245 456" xml:space="preserve" height="61.241299999999995" width="32.88673294815629" class="icon-dxe-0" data-fill-palette-color="accent" id="dxe-0"><g fill="#b66f39" data-fill-palette-color="accent"><path fill-rule="evenodd" clip-rule="evenodd" d="M66.719 250.246C76.775 247.858 89.855 247.749 95.741 237.058 26.282 223.888 6.417 238.711 0 257.754 0.589 258.217 6.875 257.71 7.509 257.754 38.135 259.922 42.994 270.095 32.335 299.174 28.117 310.673 23.077 321.872 19.033 333.427 10.235 358.563 19.368 379.392 36.988 401.983 30.667 374.135 41.346 355.238 56.505 338.01 79.834 311.491 86.736 282.901 66.719 250.246" fill="#000000" data-fill-palette-color="accent"></path><path d="M102.867 285.896C127.406 167.838 55.878 0 55.878 0 108.206 28.221 142.242 63.887 160.725 99.895 189.605 156.157 169.648 248.259 169.648 248.259 196.438 195.667 181.83 138.273 185.174 142.988 188.518 147.702 215.95 169.111 223.97 201.042 237.738 255.873 195.516 320.672 195.516 320.672 217.972 300.413 234.329 247.598 234.329 247.598S247.801 263.399 244.046 301.027C238.6 355.607 180.077 382.771 180.077 382.771 190.402 385.349 225.614 363.107 225.614 363.107 218.187 382.588 204.859 401.743 195.587 408.628 178.341 421.439 140.935 423.432 140.935 423.432 155.819 428.444 170.851 427.671 170.851 427.671 136.559 459.196 88.562 439.451 88.562 439.451 99.628 450.434 105.102 453.54 107.756 454.209 95.74 459.067 69.999 451.994 54.441 432.727 46.879 423.363 35.668 395.099 43.177 374.403 51.269 352.102 63.827 338.657 76.968 329.25 83.801 324.356 99.703 301.122 102.867 285.896" fill="#000000" data-fill-palette-color="accent"></path></g></svg></g><g transform="matrix(1,0,0,1,202.50413294815627,11.695649999999997)"><svg width="218.79999999999998" viewBox="3.1 -37.3 218.79 37.849999999999994" height="37.85" data-palette-color="#3d3028"><path d="M33.5-29.95L33.5-29.95Q33.5-27.7 31.9-26.63 30.3-25.55 28.05-25.55 25.8-25.55 24.1-26.6L24.1-26.6Q24.3-27.6 24.3-28.88 24.3-30.15 23.6-31.25L23.6-31.25Q22.5-32.9 20.05-32.9L20.05-32.9Q16.45-32.9 13.9-29.18 11.35-25.45 11.35-18.82 11.35-12.2 14.13-9.35 16.9-6.5 21.8-6.5L21.8-6.5Q24.8-6.5 27.53-7.93 30.25-9.35 31.85-11.3L31.85-11.3Q33.6-10.55 33.6-8.2L33.6-8.2Q33.6-5.15 29.5-2.3 25.4 0.55 19.75 0.55L19.75 0.55Q11.85 0.55 7.48-4.33 3.1-9.2 3.1-18 3.1-26.8 7.85-32.05 12.6-37.3 20.75-37.3L20.75-37.3Q26-37.3 29.75-35.18 33.5-33.05 33.5-29.95ZM57.6-4.4L57.6-4.4Q62-4.4 63.8-8.3L63.8-8.3Q65.2-11.45 65.2-16.2L65.2-16.2Q65.2-17.25 65.15-18.4L65.15-18.4Q64.8-24.7 62.55-28.55 60.3-32.4 55.9-32.4L55.9-32.4Q48.3-32.4 48.3-20.45L48.3-20.45Q48.3-10.4 52.6-6.35L52.6-6.35Q54.65-4.4 57.6-4.4ZM69.55-31.78Q71.45-29.15 72.37-25.83 73.3-22.5 73.3-18.43 73.3-14.35 72.37-11 71.45-7.65 69.55-5 67.65-2.35 64.37-0.9 61.1 0.55 56.75 0.55L56.75 0.55Q48.45 0.55 44.32-4.73 40.2-10 40.2-18.4 40.2-26.8 44.32-32.05 48.45-37.3 56.75-37.3L56.75-37.3Q61.15-37.3 64.4-35.85 67.65-34.4 69.55-31.78ZM91.25-31.2L88.39-31.2 88.39-19.45 91.25-19.45Q94.75-19.45 96.59-20.98 98.44-22.5 98.44-25.33 98.44-28.15 96.59-29.68 94.75-31.2 91.25-31.2L91.25-31.2ZM109.5-2.8L109.5-2.8Q107.8 0.55 104.09 0.55L104.09 0.55Q102.14 0.55 100.55-0.45 98.94-1.45 97.09-4.4L97.09-4.4 91.3-13.85 88.34-13.85 88.34-5.15Q88.34-2.45 90-1.6L90-1.6Q88.09 0.55 85.39 0.55L85.39 0.55Q80.5 0.55 80.5-5.4L80.5-5.4 80.5-31.15Q80.5-33.7 78.8-34.6L78.8-34.6Q80.64-36.8 83.39-36.8L83.39-36.8 91.69-36.8Q97.75-36.8 102.12-33.77 106.5-30.75 106.5-25.3L106.5-25.3Q106.5-21.75 104.55-19.23 102.59-16.7 99.3-15.3L99.3-15.3 105.19-6.55Q107-4.1 109.5-2.8ZM115.89-5.4L115.89-5.4 115.89-31.7Q115.89-34.3 114.24-35.15L114.24-35.15Q116.04-37.3 119.64-37.3L119.64-37.3Q124.04-37.3 126.69-32.9L126.69-32.9 140.49-10 140.49-31.7Q140.49-34.3 138.84-35.15L138.84-35.15Q140.64-37.3 143.39-37.3L143.39-37.3Q148.39-37.3 148.39-31.4L148.39-31.4 148.39-5.15Q148.39-2.3 149.34-0.9L149.34-0.9Q147.79 0.55 144.84 0.55 141.89 0.55 139.64-1.23 137.39-3 134.79-7.25L134.79-7.25 123.79-25.7 123.79-5.15Q123.79-2.45 125.39-1.6L125.39-1.6Q123.49 0.55 120.89 0.55 118.29 0.55 117.09-0.9 115.89-2.35 115.89-5.4ZM170.04-6.4L170.04-6.4 178.09-6.4Q181.64-6.4 184.39-8.4L184.39-8.4Q185.99-7.05 185.99-4.85 185.99-2.65 184.39-1.33 182.79 0 179.59 0L179.59 0 168.74 0Q163.74 0 161.42-2.15 159.09-4.3 159.09-8.95L159.09-8.95 159.09-31.15Q159.09-33.7 157.39-34.6L157.39-34.6Q159.24-36.8 161.94-36.8L161.94-36.8 178.64-36.8Q182.59-36.8 184.29-35.77 185.99-34.75 185.99-32.75 185.99-30.75 184.39-29.4L184.39-29.4Q181.99-30.35 178.09-30.35L178.09-30.35 166.94-30.35 166.94-22.85 173.84-22.85Q177.84-22.85 179.52-22 181.19-21.15 181.19-19.13 181.19-17.1 179.59-15.85L179.59-15.85Q177.79-16.45 173.29-16.45L173.29-16.45 166.94-16.45 166.94-9.95Q166.94-6.4 170.04-6.4ZM203.64-31.2L200.79-31.2 200.79-19.45 203.64-19.45Q207.14-19.45 208.99-20.98 210.84-22.5 210.84-25.33 210.84-28.15 208.99-29.68 207.14-31.2 203.64-31.2L203.64-31.2ZM221.89-2.8L221.89-2.8Q220.19 0.55 216.49 0.55L216.49 0.55Q214.54 0.55 212.94-0.45 211.34-1.45 209.49-4.4L209.49-4.4 203.69-13.85 200.74-13.85 200.74-5.15Q200.74-2.45 202.39-1.6L202.39-1.6Q200.49 0.55 197.79 0.55L197.79 0.55Q192.89 0.55 192.89-5.4L192.89-5.4 192.89-31.15Q192.89-33.7 191.19-34.6L191.19-34.6Q193.04-36.8 195.79-36.8L195.79-36.8 204.09-36.8Q210.14-36.8 214.51-33.77 218.89-30.75 218.89-25.3L218.89-25.3Q218.89-21.75 216.94-19.23 214.99-16.7 211.69-15.3L211.69-15.3 217.59-6.55Q219.39-4.1 221.89-2.8Z" opacity="1" transform="matrix(1,0,0,1,0,0)" fill="#3d3028" class="undefined-tk-1"></path></svg></g></svg></g></svg></g></svg></g></svg></g></svg></g><defs></defs></svg><rect width="395.52" height="57.49328592269154" fill="none" stroke="none" visibility="hidden"></rect></g></svg></g></svg>